<mxfile host="Electron" agent="Mozilla/5.0 (Macintosh; Intel Mac OS X 10_15_7) AppleWebKit/537.36 (KHTML, like Gecko) draw.io/24.7.17 Chrome/128.0.6613.36 Electron/32.0.1 Safari/537.36" version="24.7.17">
  <diagram name="Page-1" id="1XQOiZTyknqjsaOq8g1g">
    <mxGraphModel dx="954" dy="589" grid="0" gridSize="10" guides="1" tooltips="1" connect="1" arrows="1" fold="1" page="0" pageScale="1" pageWidth="827" pageHeight="1169" background="none" math="0" shadow="0">
      <root>
        <mxCell id="0" />
        <mxCell id="1" parent="0" />
        <mxCell id="fBFzF7196MMoRbjvp8Xs-1" value="Alimentation" style="rounded=0;whiteSpace=wrap;html=1;labelBackgroundColor=none;" parent="1" vertex="1">
          <mxGeometry x="81" y="48" width="120" height="60" as="geometry" />
        </mxCell>
        <mxCell id="fBFzF7196MMoRbjvp8Xs-2" value="" style="endArrow=classic;html=1;rounded=0;labelBackgroundColor=none;fontColor=default;" parent="1" edge="1">
          <mxGeometry width="50" height="50" relative="1" as="geometry">
            <mxPoint x="202" y="71" as="sourcePoint" />
            <mxPoint x="267" y="71" as="targetPoint" />
          </mxGeometry>
        </mxCell>
        <mxCell id="fBFzF7196MMoRbjvp8Xs-3" value="VCC3" style="text;html=1;align=center;verticalAlign=middle;resizable=0;points=[];autosize=1;strokeColor=none;fillColor=none;labelBackgroundColor=none;" parent="1" vertex="1">
          <mxGeometry x="197" y="44" width="50" height="26" as="geometry" />
        </mxCell>
        <mxCell id="fBFzF7196MMoRbjvp8Xs-4" value="" style="endArrow=classic;html=1;rounded=0;labelBackgroundColor=none;fontColor=default;" parent="1" edge="1">
          <mxGeometry width="50" height="50" relative="1" as="geometry">
            <mxPoint x="202" y="99" as="sourcePoint" />
            <mxPoint x="267" y="99" as="targetPoint" />
          </mxGeometry>
        </mxCell>
        <mxCell id="fBFzF7196MMoRbjvp8Xs-5" value="&lt;span style=&quot;caret-color: rgb(0, 0, 0); text-align: start; text-wrap: wrap;&quot;&gt;&lt;font face=&quot;Helvetica&quot;&gt;État_Alim&lt;/font&gt;&lt;/span&gt;" style="text;html=1;align=center;verticalAlign=middle;resizable=0;points=[];autosize=1;strokeColor=none;fillColor=none;labelBackgroundColor=none;" parent="1" vertex="1">
          <mxGeometry x="197" y="72" width="69" height="26" as="geometry" />
        </mxCell>
        <mxCell id="fBFzF7196MMoRbjvp8Xs-29" value="" style="endArrow=classic;startArrow=classic;html=1;rounded=0;entryX=1.006;entryY=1.077;entryDx=0;entryDy=0;entryPerimeter=0;labelBackgroundColor=none;fontColor=default;" parent="1" edge="1">
          <mxGeometry width="50" height="50" relative="1" as="geometry">
            <mxPoint x="299" y="440" as="sourcePoint" />
            <mxPoint x="462.99" y="440.00200000000007" as="targetPoint" />
          </mxGeometry>
        </mxCell>
        <mxCell id="fBFzF7196MMoRbjvp8Xs-30" value="Données_de_programmation" style="text;html=1;align=center;verticalAlign=middle;resizable=0;points=[];autosize=1;strokeColor=none;fillColor=none;labelBackgroundColor=none;" parent="1" vertex="1">
          <mxGeometry x="293" y="414" width="173" height="26" as="geometry" />
        </mxCell>
        <mxCell id="fBFzF7196MMoRbjvp8Xs-31" value="Traitement Numérique" style="rounded=0;whiteSpace=wrap;html=1;labelBackgroundColor=none;" parent="1" vertex="1">
          <mxGeometry x="462" y="231" width="247" height="275" as="geometry" />
        </mxCell>
        <mxCell id="fBFzF7196MMoRbjvp8Xs-32" value="Captage Appui Bouton" style="rounded=0;whiteSpace=wrap;html=1;labelBackgroundColor=none;" parent="1" vertex="1">
          <mxGeometry x="166" y="256" width="120" height="60" as="geometry" />
        </mxCell>
        <mxCell id="fBFzF7196MMoRbjvp8Xs-33" value="" style="endArrow=classic;html=1;rounded=0;labelBackgroundColor=none;fontColor=default;" parent="1" edge="1">
          <mxGeometry width="50" height="50" relative="1" as="geometry">
            <mxPoint x="82" y="287" as="sourcePoint" />
            <mxPoint x="164" y="287" as="targetPoint" />
          </mxGeometry>
        </mxCell>
        <mxCell id="fBFzF7196MMoRbjvp8Xs-34" value="Appui_BP" style="text;html=1;align=center;verticalAlign=middle;resizable=0;points=[];autosize=1;strokeColor=none;fillColor=none;labelBackgroundColor=none;" parent="1" vertex="1">
          <mxGeometry x="86" y="260" width="71" height="26" as="geometry" />
        </mxCell>
        <mxCell id="fBFzF7196MMoRbjvp8Xs-35" value="" style="endArrow=classic;html=1;rounded=0;exitX=1;exitY=0.5;exitDx=0;exitDy=0;labelBackgroundColor=none;fontColor=default;" parent="1" edge="1">
          <mxGeometry width="50" height="50" relative="1" as="geometry">
            <mxPoint x="287" y="286" as="sourcePoint" />
            <mxPoint x="462" y="287" as="targetPoint" />
          </mxGeometry>
        </mxCell>
        <mxCell id="fBFzF7196MMoRbjvp8Xs-36" value="Vimage_BP" style="text;html=1;align=center;verticalAlign=middle;resizable=0;points=[];autosize=1;strokeColor=none;fillColor=none;labelBackgroundColor=none;" parent="1" vertex="1">
          <mxGeometry x="330" y="260" width="81" height="26" as="geometry" />
        </mxCell>
        <mxCell id="fBFzF7196MMoRbjvp8Xs-40" value="Affichage du temps de douche" style="rounded=0;whiteSpace=wrap;html=1;labelBackgroundColor=none;" parent="1" vertex="1">
          <mxGeometry x="857" y="256" width="120" height="60" as="geometry" />
        </mxCell>
        <mxCell id="fBFzF7196MMoRbjvp8Xs-41" value="" style="endArrow=classic;html=1;rounded=0;entryX=0.993;entryY=1.013;entryDx=0;entryDy=0;entryPerimeter=0;exitX=0.043;exitY=1.038;exitDx=0;exitDy=0;exitPerimeter=0;labelBackgroundColor=none;fontColor=default;" parent="1" source="fBFzF7196MMoRbjvp8Xs-42" target="fBFzF7196MMoRbjvp8Xs-42" edge="1">
          <mxGeometry width="50" height="50" relative="1" as="geometry">
            <mxPoint x="716" y="287" as="sourcePoint" />
            <mxPoint x="798" y="287" as="targetPoint" />
          </mxGeometry>
        </mxCell>
        <mxCell id="fBFzF7196MMoRbjvp8Xs-42" value="Commande_Ecran_OLED" style="text;html=1;align=center;verticalAlign=middle;resizable=0;points=[];autosize=1;strokeColor=none;fillColor=none;labelBackgroundColor=none;" parent="1" vertex="1">
          <mxGeometry x="702" y="260" width="157" height="26" as="geometry" />
        </mxCell>
        <mxCell id="fBFzF7196MMoRbjvp8Xs-43" value="" style="endArrow=classic;html=1;rounded=0;exitX=1;exitY=0.5;exitDx=0;exitDy=0;labelBackgroundColor=none;fontColor=default;" parent="1" source="fBFzF7196MMoRbjvp8Xs-40" edge="1">
          <mxGeometry width="50" height="50" relative="1" as="geometry">
            <mxPoint x="987" y="287" as="sourcePoint" />
            <mxPoint x="1154" y="286" as="targetPoint" />
          </mxGeometry>
        </mxCell>
        <mxCell id="fBFzF7196MMoRbjvp8Xs-44" value="Afficher_Temps_Douche" style="text;html=1;align=left;verticalAlign=middle;resizable=0;points=[];autosize=1;strokeColor=none;fillColor=none;labelBackgroundColor=none;" parent="1" vertex="1">
          <mxGeometry x="987" y="260" width="149" height="26" as="geometry" />
        </mxCell>
        <mxCell id="fBFzF7196MMoRbjvp8Xs-47" value="&lt;span style=&quot;caret-color: rgb(0, 0, 0); text-align: start;&quot;&gt;&lt;font face=&quot;Helvetica&quot;&gt;Affichage de fin de douche&lt;/font&gt;&lt;/span&gt;" style="rounded=0;whiteSpace=wrap;html=1;labelBackgroundColor=none;" parent="1" vertex="1">
          <mxGeometry x="857" y="343" width="120" height="60" as="geometry" />
        </mxCell>
        <mxCell id="fBFzF7196MMoRbjvp8Xs-48" value="" style="endArrow=classic;html=1;rounded=0;entryX=0;entryY=0.5;entryDx=0;entryDy=0;exitX=1;exitY=0.522;exitDx=0;exitDy=0;exitPerimeter=0;labelBackgroundColor=none;fontColor=default;" parent="1" source="fBFzF7196MMoRbjvp8Xs-31" target="fBFzF7196MMoRbjvp8Xs-47" edge="1">
          <mxGeometry width="50" height="50" relative="1" as="geometry">
            <mxPoint x="722" y="374" as="sourcePoint" />
            <mxPoint x="804" y="374" as="targetPoint" />
          </mxGeometry>
        </mxCell>
        <mxCell id="fBFzF7196MMoRbjvp8Xs-49" value="Commande_LED" style="text;html=1;align=center;verticalAlign=middle;resizable=0;points=[];autosize=1;strokeColor=none;fillColor=none;labelBackgroundColor=none;" parent="1" vertex="1">
          <mxGeometry x="703" y="347" width="110" height="26" as="geometry" />
        </mxCell>
        <mxCell id="fBFzF7196MMoRbjvp8Xs-50" value="" style="endArrow=classic;html=1;rounded=0;exitX=1;exitY=0.5;exitDx=0;exitDy=0;labelBackgroundColor=none;fontColor=default;" parent="1" source="fBFzF7196MMoRbjvp8Xs-47" edge="1">
          <mxGeometry width="50" height="50" relative="1" as="geometry">
            <mxPoint x="993" y="374" as="sourcePoint" />
            <mxPoint x="1153" y="373" as="targetPoint" />
          </mxGeometry>
        </mxCell>
        <mxCell id="fBFzF7196MMoRbjvp8Xs-51" value="Indiquer_fin_douche" style="text;html=1;align=left;verticalAlign=middle;resizable=0;points=[];autosize=1;strokeColor=none;fillColor=none;labelBackgroundColor=none;" parent="1" vertex="1">
          <mxGeometry x="987" y="347" width="127" height="26" as="geometry" />
        </mxCell>
        <mxCell id="fBFzF7196MMoRbjvp8Xs-52" value="&lt;span style=&quot;caret-color: rgb(0, 0, 0); text-align: start;&quot;&gt;&lt;font style=&quot;font-size: 12px;&quot; face=&quot;Helvetica&quot;&gt;Indication sonore de fin de douche&lt;/font&gt;&lt;/span&gt;" style="rounded=0;whiteSpace=wrap;html=1;labelBackgroundColor=none;" parent="1" vertex="1">
          <mxGeometry x="857" y="426" width="120" height="60" as="geometry" />
        </mxCell>
        <mxCell id="fBFzF7196MMoRbjvp8Xs-53" value="" style="endArrow=classic;html=1;rounded=0;entryX=0;entryY=0.5;entryDx=0;entryDy=0;exitX=0.041;exitY=0.991;exitDx=0;exitDy=0;exitPerimeter=0;labelBackgroundColor=none;fontColor=default;" parent="1" source="fBFzF7196MMoRbjvp8Xs-54" target="fBFzF7196MMoRbjvp8Xs-52" edge="1">
          <mxGeometry width="50" height="50" relative="1" as="geometry">
            <mxPoint x="716" y="457" as="sourcePoint" />
            <mxPoint x="798" y="457" as="targetPoint" />
          </mxGeometry>
        </mxCell>
        <mxCell id="fBFzF7196MMoRbjvp8Xs-54" value="Commande_BUZZER" style="text;html=1;align=center;verticalAlign=middle;resizable=0;points=[];autosize=1;strokeColor=none;fillColor=none;labelBackgroundColor=none;" parent="1" vertex="1">
          <mxGeometry x="703" y="430" width="135" height="26" as="geometry" />
        </mxCell>
        <mxCell id="fBFzF7196MMoRbjvp8Xs-55" value="" style="endArrow=classic;html=1;rounded=0;exitX=1;exitY=0.5;exitDx=0;exitDy=0;labelBackgroundColor=none;fontColor=default;" parent="1" source="fBFzF7196MMoRbjvp8Xs-52" edge="1">
          <mxGeometry width="50" height="50" relative="1" as="geometry">
            <mxPoint x="987" y="457" as="sourcePoint" />
            <mxPoint x="1154" y="456" as="targetPoint" />
          </mxGeometry>
        </mxCell>
        <mxCell id="fBFzF7196MMoRbjvp8Xs-56" value="Sonner_fin_douche" style="text;html=1;align=left;verticalAlign=middle;resizable=0;points=[];autosize=1;strokeColor=none;fillColor=none;labelBackgroundColor=none;" parent="1" vertex="1">
          <mxGeometry x="987" y="430" width="122" height="26" as="geometry" />
        </mxCell>
        <mxCell id="fBFzF7196MMoRbjvp8Xs-57" value="Affichage sur l&#39;application mobile" style="rounded=0;whiteSpace=wrap;html=1;labelBackgroundColor=none;" parent="1" vertex="1">
          <mxGeometry x="525.5" y="585" width="120" height="60" as="geometry" />
        </mxCell>
        <mxCell id="fBFzF7196MMoRbjvp8Xs-59" value="&lt;div style=&quot;text-align: start;&quot;&gt;&lt;span style=&quot;text-wrap-mode: wrap;&quot;&gt;Données_Bluetooth&lt;/span&gt;&lt;/div&gt;" style="text;html=1;align=center;verticalAlign=middle;resizable=0;points=[];autosize=1;strokeColor=none;fillColor=none;labelBackgroundColor=none;" parent="1" vertex="1">
          <mxGeometry x="585" y="530" width="123" height="26" as="geometry" />
        </mxCell>
        <mxCell id="fBFzF7196MMoRbjvp8Xs-61" value="" style="endArrow=classic;html=1;rounded=0;entryX=0.5;entryY=0;entryDx=0;entryDy=0;exitX=0.5;exitY=1;exitDx=0;exitDy=0;labelBackgroundColor=none;fontColor=default;" parent="1" source="fBFzF7196MMoRbjvp8Xs-31" target="fBFzF7196MMoRbjvp8Xs-57" edge="1">
          <mxGeometry width="50" height="50" relative="1" as="geometry">
            <mxPoint x="571" y="506" as="sourcePoint" />
            <mxPoint x="717" y="504" as="targetPoint" />
          </mxGeometry>
        </mxCell>
        <mxCell id="fBFzF7196MMoRbjvp8Xs-62" value="" style="endArrow=classic;html=1;rounded=0;entryX=0.5;entryY=0;entryDx=0;entryDy=0;exitX=0.5;exitY=1;exitDx=0;exitDy=0;labelBackgroundColor=none;fontColor=default;" parent="1" edge="1">
          <mxGeometry width="50" height="50" relative="1" as="geometry">
            <mxPoint x="585" y="645" as="sourcePoint" />
            <mxPoint x="586" y="724" as="targetPoint" />
          </mxGeometry>
        </mxCell>
        <mxCell id="fBFzF7196MMoRbjvp8Xs-63" value="&lt;div style=&quot;text-align: start;&quot;&gt;&lt;span style=&quot;background-color: initial; text-wrap: wrap;&quot;&gt;Afficher_Historique_Douche&lt;/span&gt;&lt;/div&gt;" style="text;html=1;align=center;verticalAlign=middle;resizable=0;points=[];autosize=1;strokeColor=none;fillColor=none;labelBackgroundColor=none;" parent="1" vertex="1">
          <mxGeometry x="585" y="667" width="167" height="26" as="geometry" />
        </mxCell>
        <mxCell id="fBFzF7196MMoRbjvp8Xs-64" value="&lt;font style=&quot;font-size: 9px;&quot;&gt;FA1&lt;/font&gt;" style="text;html=1;align=center;verticalAlign=middle;resizable=0;points=[];autosize=1;strokeColor=none;fillColor=none;" parent="1" vertex="1">
          <mxGeometry x="174" y="87" width="34" height="26" as="geometry" />
        </mxCell>
        <mxCell id="fBFzF7196MMoRbjvp8Xs-66" value="&lt;font style=&quot;font-size: 9px;&quot;&gt;FP1&lt;/font&gt;" style="text;html=1;align=center;verticalAlign=middle;resizable=0;points=[];autosize=1;strokeColor=none;fillColor=none;" parent="1" vertex="1">
          <mxGeometry x="259" y="294" width="35" height="26" as="geometry" />
        </mxCell>
        <mxCell id="fBFzF7196MMoRbjvp8Xs-67" value="&lt;span style=&quot;font-size: 9px;&quot;&gt;FP2&lt;/span&gt;" style="text;html=1;align=center;verticalAlign=middle;resizable=0;points=[];autosize=1;strokeColor=none;fillColor=none;" parent="1" vertex="1">
          <mxGeometry x="681" y="483" width="35" height="26" as="geometry" />
        </mxCell>
        <mxCell id="fBFzF7196MMoRbjvp8Xs-68" value="&lt;span style=&quot;font-size: 9px;&quot;&gt;FP3&lt;/span&gt;" style="text;html=1;align=center;verticalAlign=middle;resizable=0;points=[];autosize=1;strokeColor=none;fillColor=none;" parent="1" vertex="1">
          <mxGeometry x="617" y="622" width="35" height="26" as="geometry" />
        </mxCell>
        <mxCell id="fBFzF7196MMoRbjvp8Xs-69" value="&lt;span style=&quot;font-size: 9px;&quot;&gt;FP4&lt;/span&gt;" style="text;html=1;align=center;verticalAlign=middle;resizable=0;points=[];autosize=1;strokeColor=none;fillColor=none;" parent="1" vertex="1">
          <mxGeometry x="947" y="294" width="35" height="26" as="geometry" />
        </mxCell>
        <mxCell id="fBFzF7196MMoRbjvp8Xs-70" value="&lt;span style=&quot;font-size: 9px;&quot;&gt;FP5&lt;/span&gt;" style="text;html=1;align=center;verticalAlign=middle;resizable=0;points=[];autosize=1;strokeColor=none;fillColor=none;" parent="1" vertex="1">
          <mxGeometry x="947" y="382" width="35" height="26" as="geometry" />
        </mxCell>
        <mxCell id="fBFzF7196MMoRbjvp8Xs-71" value="&lt;span style=&quot;font-size: 9px;&quot;&gt;FP6&lt;/span&gt;" style="text;html=1;align=center;verticalAlign=middle;resizable=0;points=[];autosize=1;strokeColor=none;fillColor=none;" parent="1" vertex="1">
          <mxGeometry x="947" y="464" width="35" height="26" as="geometry" />
        </mxCell>
      </root>
    </mxGraphModel>
  </diagram>
</mxfile>
